{
	"patcher" : 	{
		"fileversion" : 1,
		"appversion" : 		{
			"major" : 8,
			"minor" : 1,
			"revision" : 11,
			"architecture" : "x64",
			"modernui" : 1
		}
,
		"classnamespace" : "box",
		"rect" : [ 782.0, 87.0, 564.0, 779.0 ],
		"bglocked" : 0,
		"openinpresentation" : 0,
		"default_fontsize" : 12.0,
		"default_fontface" : 0,
		"default_fontname" : "Arial",
		"gridonopen" : 1,
		"gridsize" : [ 15.0, 15.0 ],
		"gridsnaponopen" : 1,
		"objectsnaponopen" : 1,
		"statusbarvisible" : 2,
		"toolbarvisible" : 1,
		"lefttoolbarpinned" : 0,
		"toptoolbarpinned" : 0,
		"righttoolbarpinned" : 0,
		"bottomtoolbarpinned" : 0,
		"toolbars_unpinned_last_save" : 0,
		"tallnewobj" : 0,
		"boxanimatetime" : 200,
		"enablehscroll" : 1,
		"enablevscroll" : 1,
		"devicewidth" : 0.0,
		"description" : "",
		"digest" : "",
		"tags" : "",
		"style" : "",
		"subpatcher_template" : "",
		"assistshowspatchername" : 0,
		"boxes" : [ 			{
				"box" : 				{
					"id" : "obj-67",
					"maxclass" : "newobj",
					"numinlets" : 1,
					"numoutlets" : 1,
					"outlettype" : [ "int" ],
					"patching_rect" : [ 286.0, 15.0, 35.0, 22.0 ],
					"text" : "t 100"
				}

			}
, 			{
				"box" : 				{
					"id" : "obj-66",
					"maxclass" : "button",
					"numinlets" : 1,
					"numoutlets" : 1,
					"outlettype" : [ "bang" ],
					"parameter_enable" : 0,
					"patching_rect" : [ 225.0, 4.0, 24.0, 24.0 ]
				}

			}
, 			{
				"box" : 				{
					"id" : "obj-64",
					"maxclass" : "newobj",
					"numinlets" : 1,
					"numoutlets" : 1,
					"outlettype" : [ "multichannelsignal" ],
					"patching_rect" : [ 221.0, 110.0, 114.0, 22.0 ],
					"text" : "mc.sig~ @chans 30"
				}

			}
, 			{
				"box" : 				{
					"id" : "obj-63",
					"maxclass" : "comment",
					"numinlets" : 1,
					"numoutlets" : 0,
					"patching_rect" : [ 221.0, 38.5, 150.0, 20.0 ],
					"text" : "pitch"
				}

			}
, 			{
				"box" : 				{
					"id" : "obj-61",
					"knobshape" : 5,
					"maxclass" : "slider",
					"min" : -100.0,
					"numinlets" : 1,
					"numoutlets" : 1,
					"outlettype" : [ "" ],
					"parameter_enable" : 0,
					"patching_rect" : [ 221.0, 59.0, 163.0, 39.0 ],
					"size" : 200.0
				}

			}
, 			{
				"box" : 				{
					"id" : "obj-60",
					"maxclass" : "slider",
					"numinlets" : 1,
					"numoutlets" : 1,
					"outlettype" : [ "" ],
					"parameter_enable" : 0,
					"patching_rect" : [ 267.0, 186.0, 115.0, 26.0 ]
				}

			}
, 			{
				"box" : 				{
					"floatoutput" : 1,
					"id" : "obj-59",
					"knobshape" : 5,
					"maxclass" : "slider",
					"numinlets" : 1,
					"numoutlets" : 1,
					"outlettype" : [ "" ],
					"parameter_enable" : 0,
					"patching_rect" : [ 145.0, 186.0, 115.0, 26.0 ],
					"size" : 1.0
				}

			}
, 			{
				"box" : 				{
					"id" : "obj-57",
					"maxclass" : "comment",
					"numinlets" : 1,
					"numoutlets" : 0,
					"patching_rect" : [ 76.0, 18.0, 65.0, 20.0 ],
					"text" : "density"
				}

			}
, 			{
				"box" : 				{
					"id" : "obj-55",
					"maxclass" : "comment",
					"numinlets" : 1,
					"numoutlets" : 0,
					"patching_rect" : [ 267.0, 161.0, 48.5, 20.0 ],
					"text" : "size"
				}

			}
, 			{
				"box" : 				{
					"id" : "obj-53",
					"maxclass" : "comment",
					"numinlets" : 1,
					"numoutlets" : 0,
					"patching_rect" : [ 144.0, 157.0, 51.0, 20.0 ],
					"text" : "position"
				}

			}
, 			{
				"box" : 				{
					"id" : "obj-51",
					"maxclass" : "newobj",
					"numinlets" : 1,
					"numoutlets" : 1,
					"outlettype" : [ "multichannelsignal" ],
					"patching_rect" : [ 265.5, 216.0, 114.0, 22.0 ],
					"text" : "mc.sig~ @chans 30"
				}

			}
, 			{
				"box" : 				{
					"id" : "obj-47",
					"maxclass" : "newobj",
					"numinlets" : 1,
					"numoutlets" : 1,
					"outlettype" : [ "multichannelsignal" ],
					"patching_rect" : [ 145.0, 216.0, 114.0, 22.0 ],
					"text" : "mc.sig~ @chans 30"
				}

			}
, 			{
				"box" : 				{
					"id" : "obj-46",
					"maxclass" : "newobj",
					"numinlets" : 2,
					"numoutlets" : 0,
					"patching_rect" : [ 278.5, 606.0, 35.0, 22.0 ],
					"text" : "dac~"
				}

			}
, 			{
				"box" : 				{
					"id" : "obj-41",
					"maxclass" : "newobj",
					"numinlets" : 2,
					"numoutlets" : 2,
					"outlettype" : [ "setvalue", "int" ],
					"patching_rect" : [ 413.0, 131.0, 160.0, 22.0 ],
					"text" : "mc.target"
				}

			}
, 			{
				"box" : 				{
					"id" : "obj-40",
					"maxclass" : "newobj",
					"numinlets" : 1,
					"numoutlets" : 1,
					"outlettype" : [ "multichannelsignal" ],
					"patching_rect" : [ 413.0, 162.0, 114.0, 22.0 ],
					"text" : "mc.sig~ @chans 30"
				}

			}
, 			{
				"box" : 				{
					"id" : "obj-39",
					"maxclass" : "newobj",
					"numinlets" : 2,
					"numoutlets" : 1,
					"outlettype" : [ "float" ],
					"patching_rect" : [ 413.0, 102.0, 52.0, 22.0 ],
					"text" : "/ 10000."
				}

			}
, 			{
				"box" : 				{
					"id" : "obj-38",
					"maxclass" : "newobj",
					"numinlets" : 2,
					"numoutlets" : 1,
					"outlettype" : [ "int" ],
					"patching_rect" : [ 413.0, 76.0, 86.0, 22.0 ],
					"text" : "random 10000"
				}

			}
, 			{
				"box" : 				{
					"id" : "obj-36",
					"maxclass" : "newobj",
					"numinlets" : 2,
					"numoutlets" : 3,
					"outlettype" : [ "bang", "bang", "int" ],
					"patching_rect" : [ 525.5, 42.0, 43.0, 22.0 ],
					"text" : "Uzi 30"
				}

			}
, 			{
				"box" : 				{
					"id" : "obj-35",
					"maxclass" : "button",
					"numinlets" : 1,
					"numoutlets" : 1,
					"outlettype" : [ "bang" ],
					"parameter_enable" : 0,
					"patching_rect" : [ 542.5, 4.0, 24.0, 24.0 ]
				}

			}
, 			{
				"box" : 				{
					"id" : "obj-33",
					"maxclass" : "newobj",
					"numinlets" : 1,
					"numoutlets" : 2,
					"outlettype" : [ "signal", "signal" ],
					"patching_rect" : [ 79.0, 317.0, 83.0, 22.0 ],
					"text" : "mc.unpack~"
				}

			}
, 			{
				"box" : 				{
					"id" : "obj-32",
					"maxclass" : "newobj",
					"numinlets" : 2,
					"numoutlets" : 1,
					"outlettype" : [ "multichannelsignal" ],
					"patching_rect" : [ 79.0, 285.0, 341.0, 22.0 ],
					"text" : "mc.mixdown~ 2"
				}

			}
, 			{
				"box" : 				{
					"color" : [ 0.996078431372549, 1.0, 0.266666666666667, 1.0 ],
					"data" : 					{
						"patcher" : 						{
							"fileversion" : 1,
							"appversion" : 							{
								"major" : 8,
								"minor" : 1,
								"revision" : 11,
								"architecture" : "x64",
								"modernui" : 1
							}
,
							"classnamespace" : "dsp.gen",
							"rect" : [ 244.0, 91.0, 958.0, 775.0 ],
							"bglocked" : 0,
							"openinpresentation" : 0,
							"default_fontsize" : 12.0,
							"default_fontface" : 0,
							"default_fontname" : "Arial",
							"gridonopen" : 1,
							"gridsize" : [ 15.0, 15.0 ],
							"gridsnaponopen" : 1,
							"objectsnaponopen" : 1,
							"statusbarvisible" : 2,
							"toolbarvisible" : 1,
							"lefttoolbarpinned" : 0,
							"toptoolbarpinned" : 0,
							"righttoolbarpinned" : 0,
							"bottomtoolbarpinned" : 0,
							"toolbars_unpinned_last_save" : 0,
							"tallnewobj" : 0,
							"boxanimatetime" : 200,
							"enablehscroll" : 1,
							"enablevscroll" : 1,
							"devicewidth" : 0.0,
							"description" : "",
							"digest" : "",
							"tags" : "",
							"style" : "",
							"subpatcher_template" : "",
							"assistshowspatchername" : 0,
							"boxes" : [ 								{
									"box" : 									{
										"maxclass" : "newobj",
										"text" : "+",
										"patching_rect" : [ 688.0, 90.0, 29.5, 22.0 ],
										"numinlets" : 2,
										"numoutlets" : 1,
										"id" : "obj-50",
										"outlettype" : [ "" ]
									}

								}
, 								{
									"box" : 									{
										"maxclass" : "newobj",
										"text" : "*",
										"patching_rect" : [ 790.0, 450.0, 100.0, 22.0 ],
										"numinlets" : 2,
										"numoutlets" : 1,
										"id" : "obj-49",
										"outlettype" : [ "" ]
									}

								}
, 								{
									"box" : 									{
										"maxclass" : "newobj",
										"text" : "latch",
										"patching_rect" : [ 871.0, 337.0, 34.0, 22.0 ],
										"numinlets" : 2,
										"numoutlets" : 1,
										"id" : "obj-47",
										"outlettype" : [ "" ]
									}

								}
, 								{
									"box" : 									{
										"maxclass" : "newobj",
										"text" : "noise",
										"patching_rect" : [ 871.0, 299.0, 37.0, 22.0 ],
										"numinlets" : 0,
										"numoutlets" : 1,
										"id" : "obj-48",
										"outlettype" : [ "" ]
									}

								}
, 								{
									"box" : 									{
										"maxclass" : "newobj",
										"text" : "latch",
										"patching_rect" : [ 786.0, 413.0, 34.0, 22.0 ],
										"numinlets" : 2,
										"numoutlets" : 1,
										"id" : "obj-46",
										"outlettype" : [ "" ]
									}

								}
, 								{
									"box" : 									{
										"maxclass" : "newobj",
										"text" : "/ 100",
										"patching_rect" : [ 788.0, 368.0, 35.0, 22.0 ],
										"numinlets" : 1,
										"numoutlets" : 1,
										"id" : "obj-45",
										"outlettype" : [ "" ]
									}

								}
, 								{
									"box" : 									{
										"maxclass" : "newobj",
										"text" : "clip 0 1200",
										"patching_rect" : [ 788.0, 334.0, 67.0, 22.0 ],
										"numinlets" : 1,
										"numoutlets" : 1,
										"id" : "obj-44",
										"outlettype" : [ "" ]
									}

								}
, 								{
									"box" : 									{
										"maxclass" : "newobj",
										"text" : "param drift",
										"patching_rect" : [ 788.0, 299.0, 66.0, 22.0 ],
										"numinlets" : 0,
										"numoutlets" : 1,
										"id" : "obj-43",
										"outlettype" : [ "" ]
									}

								}
, 								{
									"box" : 									{
										"maxclass" : "newobj",
										"text" : "+",
										"patching_rect" : [ 38.0, 482.0, 103.5, 22.0 ],
										"numinlets" : 2,
										"numoutlets" : 1,
										"id" : "obj-42",
										"outlettype" : [ "" ]
									}

								}
, 								{
									"box" : 									{
										"maxclass" : "newobj",
										"text" : "*",
										"patching_rect" : [ 819.0, 198.0, 75.5, 22.0 ],
										"numinlets" : 2,
										"numoutlets" : 1,
										"id" : "obj-41",
										"outlettype" : [ "" ]
									}

								}
, 								{
									"box" : 									{
										"maxclass" : "newobj",
										"text" : "latch",
										"patching_rect" : [ 863.0, 155.0, 34.0, 22.0 ],
										"numinlets" : 2,
										"numoutlets" : 1,
										"id" : "obj-40",
										"outlettype" : [ "" ]
									}

								}
, 								{
									"box" : 									{
										"maxclass" : "newobj",
										"text" : "mstosamps",
										"patching_rect" : [ 863.0, 121.0, 70.0, 22.0 ],
										"numinlets" : 1,
										"numoutlets" : 1,
										"id" : "obj-38",
										"outlettype" : [ "" ]
									}

								}
, 								{
									"box" : 									{
										"maxclass" : "newobj",
										"text" : "clip 0 1000",
										"patching_rect" : [ 863.0, 90.0, 67.0, 22.0 ],
										"numinlets" : 1,
										"numoutlets" : 1,
										"id" : "obj-37",
										"outlettype" : [ "" ]
									}

								}
, 								{
									"box" : 									{
										"maxclass" : "newobj",
										"text" : "param spray",
										"patching_rect" : [ 864.0, 55.0, 75.0, 22.0 ],
										"numinlets" : 0,
										"numoutlets" : 1,
										"id" : "obj-36",
										"outlettype" : [ "" ]
									}

								}
, 								{
									"box" : 									{
										"maxclass" : "newobj",
										"text" : "latch",
										"patching_rect" : [ 819.0, 93.0, 34.0, 22.0 ],
										"numinlets" : 2,
										"numoutlets" : 1,
										"id" : "obj-35",
										"outlettype" : [ "" ]
									}

								}
, 								{
									"box" : 									{
										"maxclass" : "newobj",
										"text" : "noise",
										"patching_rect" : [ 819.0, 55.0, 37.0, 22.0 ],
										"numinlets" : 0,
										"numoutlets" : 1,
										"id" : "obj-34",
										"outlettype" : [ "" ]
									}

								}
, 								{
									"box" : 									{
										"maxclass" : "newobj",
										"text" : "*",
										"patching_rect" : [ 351.0, 198.0, 303.5, 22.0 ],
										"numinlets" : 2,
										"numoutlets" : 1,
										"id" : "obj-33",
										"outlettype" : [ "" ]
									}

								}
, 								{
									"box" : 									{
										"maxclass" : "newobj",
										"text" : "*",
										"patching_rect" : [ 205.75, 347.0, 66.5, 22.0 ],
										"numinlets" : 2,
										"numoutlets" : 1,
										"id" : "obj-32",
										"outlettype" : [ "" ]
									}

								}
, 								{
									"box" : 									{
										"maxclass" : "newobj",
										"text" : "expr pow(2\\, in1 / 12)",
										"patching_rect" : [ 630.0, 121.0, 118.0, 22.0 ],
										"numinlets" : 1,
										"numoutlets" : 1,
										"id" : "obj-31",
										"outlettype" : [ "" ]
									}

								}
, 								{
									"box" : 									{
										"maxclass" : "newobj",
										"text" : "latch",
										"patching_rect" : [ 630.0, 93.0, 34.0, 22.0 ],
										"numinlets" : 2,
										"numoutlets" : 1,
										"id" : "obj-30",
										"outlettype" : [ "" ]
									}

								}
, 								{
									"box" : 									{
										"maxclass" : "comment",
										"text" : "pitch -100 .. 100",
										"patching_rect" : [ 630.0, 30.0, 96.0, 20.0 ],
										"numinlets" : 1,
										"numoutlets" : 0,
										"id" : "obj-29"
									}

								}
, 								{
									"box" : 									{
										"maxclass" : "newobj",
										"text" : "in 4",
										"patching_rect" : [ 630.0, 52.0, 28.0, 22.0 ],
										"numinlets" : 0,
										"color" : [ 1.0, 0.0, 0.0, 1.0 ],
										"numoutlets" : 1,
										"id" : "obj-27",
										"outlettype" : [ "" ]
									}

								}
, 								{
									"box" : 									{
										"maxclass" : "newobj",
										"text" : "latch",
										"patching_rect" : [ 174.0, 113.0, 34.0, 22.0 ],
										"numinlets" : 2,
										"numoutlets" : 1,
										"id" : "obj-26",
										"outlettype" : [ "" ]
									}

								}
, 								{
									"box" : 									{
										"maxclass" : "newobj",
										"text" : "latch",
										"patching_rect" : [ 342.0, 133.0, 34.0, 22.0 ],
										"numinlets" : 2,
										"numoutlets" : 1,
										"id" : "obj-25",
										"outlettype" : [ "" ]
									}

								}
, 								{
									"box" : 									{
										"maxclass" : "newobj",
										"text" : "/",
										"patching_rect" : [ 351.0, 363.0, 114.0, 22.0 ],
										"numinlets" : 2,
										"numoutlets" : 1,
										"id" : "obj-24",
										"outlettype" : [ "" ]
									}

								}
, 								{
									"box" : 									{
										"maxclass" : "newobj",
										"text" : "*",
										"patching_rect" : [ 38.0, 590.0, 215.0, 22.0 ],
										"numinlets" : 2,
										"numoutlets" : 1,
										"id" : "obj-7",
										"outlettype" : [ "" ]
									}

								}
, 								{
									"box" : 									{
										"maxclass" : "newobj",
										"text" : "sample window @index phase @boundmode wrap",
										"linecount" : 3,
										"patching_rect" : [ 351.0, 403.5, 114.0, 49.0 ],
										"numinlets" : 2,
										"numoutlets" : 2,
										"id" : "obj-3",
										"outlettype" : [ "", "" ]
									}

								}
, 								{
									"box" : 									{
										"maxclass" : "newobj",
										"text" : "history",
										"patching_rect" : [ 88.75, 347.0, 110.0, 22.0 ],
										"numinlets" : 1,
										"numoutlets" : 1,
										"id" : "obj-22",
										"outlettype" : [ "" ]
									}

								}
, 								{
									"box" : 									{
										"maxclass" : "newobj",
										"text" : "<",
										"patching_rect" : [ 88.75, 309.0, 183.5, 22.0 ],
										"numinlets" : 2,
										"numoutlets" : 1,
										"id" : "obj-21",
										"outlettype" : [ "" ]
									}

								}
, 								{
									"box" : 									{
										"maxclass" : "newobj",
										"text" : "expr in1 - in2",
										"patching_rect" : [ 383.0, 239.0, 326.0, 22.0 ],
										"numinlets" : 2,
										"numoutlets" : 1,
										"id" : "obj-20",
										"outlettype" : [ "" ]
									}

								}
, 								{
									"box" : 									{
										"maxclass" : "newobj",
										"text" : "+",
										"patching_rect" : [ 38.0, 399.0, 280.5, 22.0 ],
										"numinlets" : 2,
										"numoutlets" : 1,
										"id" : "obj-19",
										"outlettype" : [ "" ]
									}

								}
, 								{
									"box" : 									{
										"maxclass" : "newobj",
										"text" : "*",
										"patching_rect" : [ 174.0, 141.0, 29.5, 22.0 ],
										"numinlets" : 2,
										"numoutlets" : 1,
										"id" : "obj-18",
										"outlettype" : [ "" ]
									}

								}
, 								{
									"box" : 									{
										"maxclass" : "newobj",
										"text" : "counter",
										"patching_rect" : [ 88.75, 267.0, 200.0, 22.0 ],
										"numinlets" : 3,
										"numoutlets" : 3,
										"id" : "obj-17",
										"outlettype" : [ "", "", "" ]
									}

								}
, 								{
									"box" : 									{
										"maxclass" : "newobj",
										"text" : "peek sample @boundmode wrap",
										"patching_rect" : [ 38.0, 540.0, 185.0, 22.0 ],
										"numinlets" : 2,
										"numoutlets" : 2,
										"id" : "obj-16",
										"outlettype" : [ "", "" ]
									}

								}
, 								{
									"box" : 									{
										"maxclass" : "newobj",
										"text" : "mstosamps",
										"patching_rect" : [ 342.0, 161.0, 70.0, 22.0 ],
										"numinlets" : 1,
										"numoutlets" : 1,
										"id" : "obj-15",
										"outlettype" : [ "" ]
									}

								}
, 								{
									"box" : 									{
										"maxclass" : "comment",
										"text" : "GRAIN SIZE ms",
										"patching_rect" : [ 342.0, 31.0, 150.0, 20.0 ],
										"numinlets" : 1,
										"numoutlets" : 0,
										"id" : "obj-14"
									}

								}
, 								{
									"box" : 									{
										"maxclass" : "newobj",
										"text" : "in 3",
										"patching_rect" : [ 342.0, 58.0, 28.0, 22.0 ],
										"numinlets" : 0,
										"color" : [ 1.0, 0.0, 0.0, 1.0 ],
										"numoutlets" : 1,
										"id" : "obj-12",
										"outlettype" : [ "" ]
									}

								}
, 								{
									"box" : 									{
										"maxclass" : "comment",
										"text" : "POSITION\n0 .. 1",
										"linecount" : 2,
										"patching_rect" : [ 174.0, 24.5, 68.0, 33.0 ],
										"numinlets" : 1,
										"numoutlets" : 0,
										"id" : "obj-11"
									}

								}
, 								{
									"box" : 									{
										"maxclass" : "comment",
										"text" : "TRIGGER",
										"patching_rect" : [ 11.0, 31.0, 65.0, 20.0 ],
										"numinlets" : 1,
										"numoutlets" : 0,
										"id" : "obj-8"
									}

								}
, 								{
									"box" : 									{
										"maxclass" : "newobj",
										"text" : "buffer window",
										"patching_rect" : [ 819.0, 514.0, 82.0, 22.0 ],
										"numinlets" : 0,
										"numoutlets" : 2,
										"id" : "obj-6",
										"outlettype" : [ "", "" ]
									}

								}
, 								{
									"box" : 									{
										"maxclass" : "newobj",
										"text" : "buffer sample",
										"patching_rect" : [ 495.0, 99.0, 81.0, 22.0 ],
										"numinlets" : 0,
										"numoutlets" : 2,
										"id" : "obj-5",
										"outlettype" : [ "", "" ]
									}

								}
, 								{
									"box" : 									{
										"maxclass" : "newobj",
										"text" : "in 1",
										"patching_rect" : [ 11.0, 58.0, 28.0, 22.0 ],
										"numinlets" : 0,
										"color" : [ 1.0, 0.0, 0.0, 1.0 ],
										"numoutlets" : 1,
										"id" : "obj-1",
										"outlettype" : [ "" ]
									}

								}
, 								{
									"box" : 									{
										"maxclass" : "newobj",
										"text" : "in 2",
										"patching_rect" : [ 174.0, 58.0, 28.0, 22.0 ],
										"numinlets" : 0,
										"color" : [ 1.0, 0.0, 0.0, 1.0 ],
										"numoutlets" : 1,
										"id" : "obj-2",
										"outlettype" : [ "" ]
									}

								}
, 								{
									"box" : 									{
										"maxclass" : "newobj",
										"text" : "out 1",
										"patching_rect" : [ 914.0, 746.0, 35.0, 22.0 ],
										"numinlets" : 1,
										"color" : [ 1.0, 0.0, 0.0, 1.0 ],
										"numoutlets" : 0,
										"id" : "obj-4"
									}

								}
 ],
							"lines" : [ 								{
									"patchline" : 									{
										"source" : [ "obj-49", 0 ],
										"destination" : [ "obj-50", 1 ]
									}

								}
, 								{
									"patchline" : 									{
										"source" : [ "obj-50", 0 ],
										"destination" : [ "obj-30", 0 ]
									}

								}
, 								{
									"patchline" : 									{
										"source" : [ "obj-27", 0 ],
										"destination" : [ "obj-50", 0 ]
									}

								}
, 								{
									"patchline" : 									{
										"source" : [ "obj-47", 0 ],
										"destination" : [ "obj-49", 1 ]
									}

								}
, 								{
									"patchline" : 									{
										"source" : [ "obj-46", 0 ],
										"destination" : [ "obj-49", 0 ]
									}

								}
, 								{
									"patchline" : 									{
										"source" : [ "obj-45", 0 ],
										"destination" : [ "obj-46", 0 ]
									}

								}
, 								{
									"patchline" : 									{
										"source" : [ "obj-1", 0 ],
										"destination" : [ "obj-46", 1 ],
										"order" : 3
									}

								}
, 								{
									"patchline" : 									{
										"source" : [ "obj-1", 0 ],
										"destination" : [ "obj-47", 1 ],
										"order" : 0
									}

								}
, 								{
									"patchline" : 									{
										"source" : [ "obj-48", 0 ],
										"destination" : [ "obj-47", 0 ]
									}

								}
, 								{
									"patchline" : 									{
										"source" : [ "obj-44", 0 ],
										"destination" : [ "obj-45", 0 ]
									}

								}
, 								{
									"patchline" : 									{
										"source" : [ "obj-43", 0 ],
										"destination" : [ "obj-44", 0 ]
									}

								}
, 								{
									"patchline" : 									{
										"source" : [ "obj-41", 0 ],
										"destination" : [ "obj-42", 1 ]
									}

								}
, 								{
									"patchline" : 									{
										"source" : [ "obj-42", 0 ],
										"destination" : [ "obj-16", 0 ]
									}

								}
, 								{
									"patchline" : 									{
										"source" : [ "obj-19", 0 ],
										"destination" : [ "obj-42", 0 ]
									}

								}
, 								{
									"patchline" : 									{
										"source" : [ "obj-40", 0 ],
										"destination" : [ "obj-41", 1 ]
									}

								}
, 								{
									"patchline" : 									{
										"source" : [ "obj-35", 0 ],
										"destination" : [ "obj-41", 0 ]
									}

								}
, 								{
									"patchline" : 									{
										"source" : [ "obj-1", 0 ],
										"destination" : [ "obj-40", 1 ],
										"order" : 1
									}

								}
, 								{
									"patchline" : 									{
										"source" : [ "obj-38", 0 ],
										"destination" : [ "obj-40", 0 ]
									}

								}
, 								{
									"patchline" : 									{
										"source" : [ "obj-37", 0 ],
										"destination" : [ "obj-38", 0 ]
									}

								}
, 								{
									"patchline" : 									{
										"source" : [ "obj-36", 0 ],
										"destination" : [ "obj-37", 0 ]
									}

								}
, 								{
									"patchline" : 									{
										"source" : [ "obj-1", 0 ],
										"destination" : [ "obj-35", 1 ],
										"order" : 2
									}

								}
, 								{
									"patchline" : 									{
										"source" : [ "obj-34", 0 ],
										"destination" : [ "obj-35", 0 ]
									}

								}
, 								{
									"patchline" : 									{
										"source" : [ "obj-31", 0 ],
										"destination" : [ "obj-20", 1 ],
										"order" : 0
									}

								}
, 								{
									"patchline" : 									{
										"source" : [ "obj-20", 0 ],
										"destination" : [ "obj-21", 1 ]
									}

								}
, 								{
									"patchline" : 									{
										"source" : [ "obj-33", 0 ],
										"destination" : [ "obj-20", 0 ],
										"order" : 1
									}

								}
, 								{
									"patchline" : 									{
										"source" : [ "obj-33", 0 ],
										"destination" : [ "obj-24", 1 ],
										"order" : 0
									}

								}
, 								{
									"patchline" : 									{
										"source" : [ "obj-33", 0 ],
										"destination" : [ "obj-17", 2 ],
										"order" : 2
									}

								}
, 								{
									"patchline" : 									{
										"source" : [ "obj-31", 0 ],
										"destination" : [ "obj-33", 1 ],
										"order" : 1
									}

								}
, 								{
									"patchline" : 									{
										"source" : [ "obj-15", 0 ],
										"destination" : [ "obj-33", 0 ]
									}

								}
, 								{
									"patchline" : 									{
										"source" : [ "obj-25", 0 ],
										"destination" : [ "obj-15", 0 ]
									}

								}
, 								{
									"patchline" : 									{
										"source" : [ "obj-32", 0 ],
										"destination" : [ "obj-17", 0 ]
									}

								}
, 								{
									"patchline" : 									{
										"source" : [ "obj-22", 0 ],
										"destination" : [ "obj-32", 0 ]
									}

								}
, 								{
									"patchline" : 									{
										"source" : [ "obj-31", 0 ],
										"destination" : [ "obj-32", 1 ],
										"order" : 2
									}

								}
, 								{
									"patchline" : 									{
										"source" : [ "obj-30", 0 ],
										"destination" : [ "obj-31", 0 ]
									}

								}
, 								{
									"patchline" : 									{
										"source" : [ "obj-1", 0 ],
										"destination" : [ "obj-30", 1 ],
										"order" : 4
									}

								}
, 								{
									"patchline" : 									{
										"source" : [ "obj-26", 0 ],
										"destination" : [ "obj-18", 0 ]
									}

								}
, 								{
									"patchline" : 									{
										"source" : [ "obj-2", 0 ],
										"destination" : [ "obj-26", 0 ]
									}

								}
, 								{
									"patchline" : 									{
										"source" : [ "obj-1", 0 ],
										"destination" : [ "obj-26", 1 ],
										"order" : 6
									}

								}
, 								{
									"patchline" : 									{
										"source" : [ "obj-1", 0 ],
										"destination" : [ "obj-25", 1 ],
										"order" : 5
									}

								}
, 								{
									"patchline" : 									{
										"source" : [ "obj-12", 0 ],
										"destination" : [ "obj-25", 0 ]
									}

								}
, 								{
									"patchline" : 									{
										"source" : [ "obj-17", 0 ],
										"destination" : [ "obj-21", 0 ],
										"order" : 1
									}

								}
, 								{
									"patchline" : 									{
										"source" : [ "obj-24", 0 ],
										"destination" : [ "obj-3", 0 ]
									}

								}
, 								{
									"patchline" : 									{
										"source" : [ "obj-17", 0 ],
										"destination" : [ "obj-24", 0 ],
										"order" : 0
									}

								}
, 								{
									"patchline" : 									{
										"source" : [ "obj-3", 0 ],
										"destination" : [ "obj-7", 1 ]
									}

								}
, 								{
									"patchline" : 									{
										"source" : [ "obj-7", 0 ],
										"destination" : [ "obj-4", 0 ]
									}

								}
, 								{
									"patchline" : 									{
										"source" : [ "obj-16", 0 ],
										"destination" : [ "obj-7", 0 ]
									}

								}
, 								{
									"patchline" : 									{
										"source" : [ "obj-1", 0 ],
										"destination" : [ "obj-17", 1 ],
										"order" : 7
									}

								}
, 								{
									"patchline" : 									{
										"source" : [ "obj-5", 0 ],
										"destination" : [ "obj-18", 1 ]
									}

								}
, 								{
									"patchline" : 									{
										"source" : [ "obj-17", 0 ],
										"destination" : [ "obj-19", 0 ],
										"order" : 2
									}

								}
, 								{
									"patchline" : 									{
										"source" : [ "obj-18", 0 ],
										"destination" : [ "obj-19", 1 ]
									}

								}
, 								{
									"patchline" : 									{
										"source" : [ "obj-21", 0 ],
										"destination" : [ "obj-22", 0 ]
									}

								}
 ]
						}

					}
,
					"id" : "obj-26",
					"maxclass" : "newobj",
					"numinlets" : 4,
					"numoutlets" : 1,
					"outlettype" : [ "multichannelsignal" ],
					"patching_rect" : [ 79.0, 254.0, 298.0, 22.0 ],
					"text" : "mc.gen~ granulator",
					"wrapper_uniquekey" : "u695002272"
				}

			}
, 			{
				"box" : 				{
					"color" : [ 0.996078431372549, 1.0, 0.266666666666667, 1.0 ],
					"data" : 					{
						"patcher" : 						{
							"fileversion" : 1,
							"appversion" : 							{
								"major" : 8,
								"minor" : 1,
								"revision" : 11,
								"architecture" : "x64",
								"modernui" : 1
							}
,
							"classnamespace" : "dsp.gen",
							"rect" : [ 790.0, 202.0, 600.0, 450.0 ],
							"bglocked" : 0,
							"openinpresentation" : 0,
							"default_fontsize" : 12.0,
							"default_fontface" : 0,
							"default_fontname" : "Arial",
							"gridonopen" : 1,
							"gridsize" : [ 15.0, 15.0 ],
							"gridsnaponopen" : 1,
							"objectsnaponopen" : 1,
							"statusbarvisible" : 2,
							"toolbarvisible" : 1,
							"lefttoolbarpinned" : 0,
							"toptoolbarpinned" : 0,
							"righttoolbarpinned" : 0,
							"bottomtoolbarpinned" : 0,
							"toolbars_unpinned_last_save" : 0,
							"tallnewobj" : 0,
							"boxanimatetime" : 200,
							"enablehscroll" : 1,
							"enablevscroll" : 1,
							"devicewidth" : 0.0,
							"description" : "",
							"digest" : "",
							"tags" : "",
							"style" : "",
							"subpatcher_template" : "",
							"assistshowspatchername" : 0,
							"boxes" : [ 								{
									"box" : 									{
										"maxclass" : "newobj",
										"text" : "/ 30",
										"patching_rect" : [ 117.0, 78.0, 29.0, 22.0 ],
										"numinlets" : 1,
										"numoutlets" : 1,
										"id" : "obj-17",
										"outlettype" : [ "" ]
									}

								}
, 								{
									"box" : 									{
										"maxclass" : "newobj",
										"text" : "!/ 1",
										"patching_rect" : [ 371.0, 78.0, 25.0, 22.0 ],
										"numinlets" : 1,
										"numoutlets" : 1,
										"id" : "obj-16",
										"outlettype" : [ "" ]
									}

								}
, 								{
									"box" : 									{
										"maxclass" : "newobj",
										"text" : "*",
										"patching_rect" : [ 246.0, 108.0, 150.0, 22.0 ],
										"numinlets" : 2,
										"numoutlets" : 1,
										"id" : "obj-15",
										"outlettype" : [ "" ]
									}

								}
, 								{
									"box" : 									{
										"maxclass" : "newobj",
										"text" : "- 1",
										"patching_rect" : [ 246.0, 78.0, 23.0, 22.0 ],
										"numinlets" : 1,
										"numoutlets" : 1,
										"id" : "obj-14",
										"outlettype" : [ "" ]
									}

								}
, 								{
									"box" : 									{
										"maxclass" : "newobj",
										"text" : "mc_channelcount",
										"patching_rect" : [ 371.0, 50.0, 103.0, 22.0 ],
										"numinlets" : 0,
										"numoutlets" : 1,
										"id" : "obj-13",
										"outlettype" : [ "" ]
									}

								}
, 								{
									"box" : 									{
										"maxclass" : "newobj",
										"text" : "mc_channel",
										"patching_rect" : [ 246.0, 48.0, 73.0, 22.0 ],
										"numinlets" : 0,
										"numoutlets" : 1,
										"id" : "obj-12",
										"outlettype" : [ "" ]
									}

								}
, 								{
									"box" : 									{
										"maxclass" : "newobj",
										"text" : "wrap 0. 1.",
										"patching_rect" : [ 120.0, 196.0, 61.0, 22.0 ],
										"numinlets" : 1,
										"numoutlets" : 1,
										"id" : "obj-11",
										"outlettype" : [ "" ]
									}

								}
, 								{
									"box" : 									{
										"maxclass" : "newobj",
										"text" : "+",
										"patching_rect" : [ 119.75, 148.0, 169.5, 22.0 ],
										"numinlets" : 2,
										"numoutlets" : 1,
										"id" : "obj-10",
										"outlettype" : [ "" ]
									}

								}
, 								{
									"box" : 									{
										"maxclass" : "newobj",
										"text" : "out 1",
										"patching_rect" : [ 117.0, 336.0, 35.0, 22.0 ],
										"numinlets" : 1,
										"numoutlets" : 0,
										"id" : "obj-9"
									}

								}
, 								{
									"box" : 									{
										"maxclass" : "newobj",
										"text" : "< 0",
										"patching_rect" : [ 117.0, 296.0, 26.0, 22.0 ],
										"numinlets" : 1,
										"numoutlets" : 1,
										"id" : "obj-8",
										"outlettype" : [ "" ]
									}

								}
, 								{
									"box" : 									{
										"maxclass" : "newobj",
										"text" : "delta",
										"patching_rect" : [ 117.0, 243.0, 35.0, 22.0 ],
										"numinlets" : 1,
										"numoutlets" : 1,
										"id" : "obj-7",
										"outlettype" : [ "" ]
									}

								}
, 								{
									"box" : 									{
										"maxclass" : "newobj",
										"text" : "phasor",
										"patching_rect" : [ 117.0, 114.0, 45.0, 22.0 ],
										"numinlets" : 2,
										"numoutlets" : 1,
										"id" : "obj-6",
										"outlettype" : [ "" ]
									}

								}
, 								{
									"box" : 									{
										"maxclass" : "newobj",
										"text" : "in 1",
										"patching_rect" : [ 117.0, 50.0, 28.0, 22.0 ],
										"numinlets" : 0,
										"numoutlets" : 1,
										"id" : "obj-5",
										"outlettype" : [ "" ]
									}

								}
 ],
							"lines" : [ 								{
									"patchline" : 									{
										"source" : [ "obj-7", 0 ],
										"destination" : [ "obj-8", 0 ]
									}

								}
, 								{
									"patchline" : 									{
										"source" : [ "obj-8", 0 ],
										"destination" : [ "obj-9", 0 ]
									}

								}
, 								{
									"patchline" : 									{
										"source" : [ "obj-6", 0 ],
										"destination" : [ "obj-10", 0 ]
									}

								}
, 								{
									"patchline" : 									{
										"source" : [ "obj-10", 0 ],
										"destination" : [ "obj-11", 0 ]
									}

								}
, 								{
									"patchline" : 									{
										"source" : [ "obj-11", 0 ],
										"destination" : [ "obj-7", 0 ]
									}

								}
, 								{
									"patchline" : 									{
										"source" : [ "obj-12", 0 ],
										"destination" : [ "obj-14", 0 ]
									}

								}
, 								{
									"patchline" : 									{
										"source" : [ "obj-14", 0 ],
										"destination" : [ "obj-15", 0 ]
									}

								}
, 								{
									"patchline" : 									{
										"source" : [ "obj-13", 0 ],
										"destination" : [ "obj-16", 0 ]
									}

								}
, 								{
									"patchline" : 									{
										"source" : [ "obj-16", 0 ],
										"destination" : [ "obj-15", 1 ]
									}

								}
, 								{
									"patchline" : 									{
										"source" : [ "obj-15", 0 ],
										"destination" : [ "obj-10", 1 ]
									}

								}
, 								{
									"patchline" : 									{
										"source" : [ "obj-17", 0 ],
										"destination" : [ "obj-6", 0 ]
									}

								}
, 								{
									"patchline" : 									{
										"source" : [ "obj-5", 0 ],
										"destination" : [ "obj-17", 0 ]
									}

								}
 ]
						}

					}
,
					"id" : "obj-24",
					"maxclass" : "newobj",
					"numinlets" : 1,
					"numoutlets" : 1,
					"outlettype" : [ "multichannelsignal" ],
					"patching_rect" : [ 79.0, 111.0, 96.0, 22.0 ],
					"text" : "mc.gen~ clocker",
					"wrapper_uniquekey" : "u783008812"
				}

			}
, 			{
				"box" : 				{
					"id" : "obj-23",
					"maxclass" : "newobj",
					"numinlets" : 1,
					"numoutlets" : 1,
					"outlettype" : [ "multichannelsignal" ],
					"patching_rect" : [ 79.0, 74.0, 114.0, 22.0 ],
					"text" : "mc.sig~ @chans 30"
				}

			}
, 			{
				"box" : 				{
					"format" : 6,
					"id" : "obj-22",
					"maxclass" : "flonum",
					"minimum" : 0.0,
					"numinlets" : 1,
					"numoutlets" : 2,
					"outlettype" : [ "", "bang" ],
					"parameter_enable" : 0,
					"patching_rect" : [ 79.0, 36.0, 50.0, 22.0 ]
				}

			}
, 			{
				"box" : 				{
					"id" : "obj-14",
					"maxclass" : "message",
					"numinlets" : 2,
					"numoutlets" : 1,
					"outlettype" : [ "" ],
					"patching_rect" : [ 52.0, 554.0, 118.0, 22.0 ],
					"text" : "fill 1, apply hamming"
				}

			}
, 			{
				"box" : 				{
					"id" : "obj-4",
					"maxclass" : "newobj",
					"numinlets" : 1,
					"numoutlets" : 2,
					"outlettype" : [ "float", "bang" ],
					"patching_rect" : [ 52.0, 592.0, 89.0, 22.0 ],
					"text" : "buffer~ window"
				}

			}
, 			{
				"box" : 				{
					"id" : "obj-3",
					"maxclass" : "newobj",
					"numinlets" : 1,
					"numoutlets" : 2,
					"outlettype" : [ "float", "bang" ],
					"patching_rect" : [ 52.0, 481.0, 88.0, 22.0 ],
					"text" : "buffer~ sample"
				}

			}
, 			{
				"box" : 				{
					"id" : "obj-2",
					"lastchannelcount" : 0,
					"maxclass" : "live.gain~",
					"numinlets" : 2,
					"numoutlets" : 5,
					"outlettype" : [ "signal", "signal", "", "float", "list" ],
					"parameter_enable" : 1,
					"patching_rect" : [ 265.5, 451.0, 48.0, 136.0 ],
					"saved_attribute_attributes" : 					{
						"valueof" : 						{
							"parameter_longname" : "live.gain~",
							"parameter_mmax" : 6.0,
							"parameter_mmin" : -70.0,
							"parameter_shortname" : "live.gain~",
							"parameter_type" : 0,
							"parameter_unitstyle" : 4
						}

					}
,
					"varname" : "live.gain~"
				}

			}
 ],
		"lines" : [ 			{
				"patchline" : 				{
					"destination" : [ "obj-4", 0 ],
					"source" : [ "obj-14", 0 ]
				}

			}
, 			{
				"patchline" : 				{
					"destination" : [ "obj-46", 1 ],
					"source" : [ "obj-2", 1 ]
				}

			}
, 			{
				"patchline" : 				{
					"destination" : [ "obj-46", 0 ],
					"source" : [ "obj-2", 0 ]
				}

			}
, 			{
				"patchline" : 				{
					"destination" : [ "obj-23", 0 ],
					"source" : [ "obj-22", 0 ]
				}

			}
, 			{
				"patchline" : 				{
					"destination" : [ "obj-24", 0 ],
					"source" : [ "obj-23", 0 ]
				}

			}
, 			{
				"patchline" : 				{
					"destination" : [ "obj-26", 0 ],
					"source" : [ "obj-24", 0 ]
				}

			}
, 			{
				"patchline" : 				{
					"destination" : [ "obj-32", 0 ],
					"source" : [ "obj-26", 0 ]
				}

			}
, 			{
				"patchline" : 				{
					"destination" : [ "obj-33", 0 ],
					"source" : [ "obj-32", 0 ]
				}

			}
, 			{
				"patchline" : 				{
					"destination" : [ "obj-2", 1 ],
					"source" : [ "obj-33", 1 ]
				}

			}
, 			{
				"patchline" : 				{
					"destination" : [ "obj-2", 0 ],
					"source" : [ "obj-33", 0 ]
				}

			}
, 			{
				"patchline" : 				{
					"destination" : [ "obj-36", 0 ],
					"source" : [ "obj-35", 0 ]
				}

			}
, 			{
				"patchline" : 				{
					"destination" : [ "obj-38", 0 ],
					"source" : [ "obj-36", 0 ]
				}

			}
, 			{
				"patchline" : 				{
					"destination" : [ "obj-41", 1 ],
					"source" : [ "obj-36", 2 ]
				}

			}
, 			{
				"patchline" : 				{
					"destination" : [ "obj-39", 0 ],
					"source" : [ "obj-38", 0 ]
				}

			}
, 			{
				"patchline" : 				{
					"destination" : [ "obj-41", 0 ],
					"source" : [ "obj-39", 0 ]
				}

			}
, 			{
				"patchline" : 				{
					"destination" : [ "obj-32", 1 ],
					"source" : [ "obj-40", 0 ]
				}

			}
, 			{
				"patchline" : 				{
					"destination" : [ "obj-40", 0 ],
					"source" : [ "obj-41", 0 ]
				}

			}
, 			{
				"patchline" : 				{
					"destination" : [ "obj-26", 1 ],
					"source" : [ "obj-47", 0 ]
				}

			}
, 			{
				"patchline" : 				{
					"destination" : [ "obj-26", 2 ],
					"source" : [ "obj-51", 0 ]
				}

			}
, 			{
				"patchline" : 				{
					"destination" : [ "obj-47", 0 ],
					"source" : [ "obj-59", 0 ]
				}

			}
, 			{
				"patchline" : 				{
					"destination" : [ "obj-51", 0 ],
					"source" : [ "obj-60", 0 ]
				}

			}
, 			{
				"patchline" : 				{
					"destination" : [ "obj-64", 0 ],
					"source" : [ "obj-61", 0 ]
				}

			}
, 			{
				"patchline" : 				{
					"destination" : [ "obj-26", 3 ],
					"source" : [ "obj-64", 0 ]
				}

			}
, 			{
				"patchline" : 				{
					"destination" : [ "obj-67", 0 ],
					"source" : [ "obj-66", 0 ]
				}

			}
, 			{
				"patchline" : 				{
					"destination" : [ "obj-61", 0 ],
					"source" : [ "obj-67", 0 ]
				}

			}
 ],
		"parameters" : 		{
			"obj-2" : [ "live.gain~", "live.gain~", 0 ],
			"parameterbanks" : 			{

			}
,
			"inherited_shortname" : 1
		}
,
		"dependency_cache" : [  ],
		"autosave" : 0
	}

}
